<?xml version="1.0" encoding="UTF-8"?><svg id="Camada_1" xmlns="http://www.w3.org/2000/svg" viewBox="0 0 1024 1024"><path d="M649.29,109.59c-45.8-52.03-122.63-59.71-176.92-20.42-61.03,44.15-77.57,128.1-39.45,192.76,1.41,2.58-6.13,7.45-8.11,6.01-42.96-68.65-25.05-160.36,40.4-207.48,61.18-44.04,144.54-33.98,193.74,23.07,44.51,51.61,50.7,126.49,14.62,184.63-2.06,1.18-9.95-3.54-8.42-6.18,32.19-55.18,26.55-124.22-15.85-172.39h.01Z" fill="#d4a748"/><path d="M350.99,580.04c1.97-.92,1.35,6.53,1.17,7.18-.21.81-1.31.91-2.25.7" fill="#518ad3"/><path d="M351.02,578.92c-.76-2.45.83-4.73,1.11-6.84,1.66.61,1.26,2.49,1.37,4.02.13,1.71-.27,3.43-2.49,2.82h.01Z" fill="#518ad3"/><path d="M692.52,949.96l-37.47,70.55c-1.11,2.09-3.43,3.25-5.77,2.89l-8.2-1.28c-3.81-.6-5.87-4.8-4.02-8.19l31.84-58.47c22.7-41.68,52.26-98.74,55.66-146.61,2.71-38.15-15.28-67.28-43.29-92.9-30.95-28.31-71.95-44.7-110.47-60.21-13.49-5.43-26.09-11.06-37.97-19.06-9.08-6.11-15.34-16.71-9.94-27.09,3.56,2.55-1.26,4.62-.9,7.46,2.02,16,22.91,24.19,36.66,28.96l36.72,12.74c37.26,12.92,79,31.36,106.5,60.24,22.44,23.57,35.01,53.63,35.62,86.35.9,47.76-22.34,102.04-44.98,144.66v-.02Z" fill="#d4a746"/><path d="M487.72,981.72c-12.88,13.41-23.99,27.04-34.42,42.28-10.04-.37-19.24-2.78-28.9-5.29-1.08-1.15.49-4.14,1.52-5.52,11.51-15.41,24.17-29.25,38.03-42.53,2-1.91,4.6-1.78,6.97-.78l15.24,6.44c1.59.68,3.65,3.21,1.55,5.4h0Z" fill="#d3a645"/><path d="M513.1,955.96c-2.15,2.1-4.43,2.91-6.8,1.94l-15.9-6.53c-1.21-.5-2.17-1.31-2.35-2.17-.27-1.31.39-2.7,1.54-3.81,12.79-12.43,25.61-24.03,39.36-36.02,6.92,1.65,12.9,4.82,18.61,8.53,1.69,1.1.33,4.1-.82,5.22l-33.61,32.84h-.01Z" fill="#d3a645"/><path d="M568.45,900.73c-2.62.19-23-7.72-19.44-11.45,10.82-11.35,21.42-22.26,31.6-34.51,6.69.98,12.46,3.09,18.17,6.02s-26.64,36.17-30.33,39.94Z" fill="#d3a645"/><path d="M614.33,840.06c-7.49-.06-14.16-2.32-20.85-5.76,6.64-13.23,11.52-25.35,13.52-39.47,6.52-.96,12.7-1.67,18.79.64.66,15.55-3.83,30.21-11.45,44.59h0Z" fill="#d4a746"/><path d="M620.47,773.77c-5.02.39-9.49,1.15-14.77,1.23-2.01-11.53-6.11-21.56-11.78-32.27,3.31-3.02,9.65-5.05,14.2-4.64,4.52,2.81,22.13,34.91,12.35,35.68h0Z" fill="#d4a748"/><path d="M595.4,720.28c-3.84,4.26-9.35,5.33-14.13,5.6-6.39-8.68-13.92-14.65-21.33-22.46,1.82-4.24,6.69-6.28,11.13-6.2,8.76,6.95,16.55,13.69,24.34,23.05h-.01Z" fill="#d4a745"/><path d="M543.82,690.58l-21.45-17.6c1.12-2.86,5.76-6.78,8.66-5.19,8.42,4.64,15.65,9.97,22.51,16.55-2.75,3.13-5.4,4.73-9.72,6.23Z" fill="#d7aa47"/><path d="M517.75,656c-2.28,3.48-4.97,4.01-8.03,5.64-5.34-4.77-10.65-9.28-13.53-16.46,1.8-1.45,6.66-4.46,8.54-2.52l13,13.34h.01Z" fill="#d4a746"/><path d="M500.84,634.6c-2.5,1.29-6.67,3.14-8.68,1.56-2.62-3.6-1.49-8.54-.54-12.49,2.57-.55,4.71-.36,7.25.02l1.95,10.89h.01Z" fill="#d7aa47"/><path d="M500.35,617.62c-.93,1.61-6.01,1.44-5.99-.1.03-3.53,8.26-14.01,12.37-10.95-2.76,3.96-4.11,7.09-6.39,11.05h0Z" fill="#d4a745"/><path d="M755.22,749.63c-1.67-1.34-2.16-3.58-3.21-5.94-9.68-21.94-23.97-40.65-42.96-55.28-2.17-1.68-19.24-12.2-33.19-20.22-7.57-4.34-13.2-9.07-16.27-11.44-15.62-12.15-23.85-29.43-24.64-49.99l-2.03-52.92c-.78-20.65-7.06-67.98-26.43-78.76-.29-1-.28-2.13.54-2.13,31.22-.18,60.03,32.38,64.19,62.95-.67-4.97,5.31,18.21,5.65,15.71-5.02-40.25-23.34-81.55-71.91-81.29-2.94-16.55,2.69-32.36,11.54-45.84l12.76-19.41c1.97-2.99,2.16-6.01,3.1-8.75.78-2.27,1.73-4.16,1.96-6.72,1.04-11.62-6.27-22.49-12.74-32.46-35.07-53.97,1.84-103.47-12.4-167.8-2.96-13.37-7.92-25.14-16.24-35.12-9.98-11.97-23.68-20.94-40.42-21.1-21.06-.2-39.55,10.97-51.31,28.37-13.56,20.08-20.06,51.66-20.42,75.17-1.22,4.21-.98,8.6-1.01,13.43l-.22,31.4c-1.12.63-1.3,2.8-1.18,4.58,1.58,24.38-4.06,47.71-17.05,68.08l-13.07,20.5c-3.21,5.02-3.78,10.88-4.61,16.08-.64,3.99,0,7.53,1.24,11.29,2.08,6.32,5.49,12.42,10.27,17.8,8.05,9.07,12.95,19.12,18.33,29.23,3.63,10.52,8.69,17.8,6.14,28.38-4.56,5.51-19.93,3.06-35.62,30.29-6.59,11.44-11.01,23.25-14.3,36.13-10,39-10.39,78.68.5,117.4,4.69,16.64,12.43,31.05,18.1,46.58,5.67,15.53,9.03,34.68,5.25,51.71-7.18,32.24-39.29,56.34-63.89,76.44-16.05,13.12-31.69,25.51-46.85,39.56-1.42,1.32-3.93,1.41-3.47,3.69-2.38,1.64-4.86,2.87-7.91,5.48-1.6-1.22,4.55-101.71,4.86-106.88,0,0,15.97-206.56,14.31-207.18,7.27-54.76,15.98-101.64,34.22-154.73,8.41-24.47,19.22-46.53,32.84-68.38,30.87-49.53,40.26-78.21,52.44-135.2,5.41-25.35,9.93-50.7,26.92-71.07,15.53-18.61,38.96-27.92,63.57-24.22,21.42,3.21,40.76,17.52,51.11,38.64,6.88,14.04,10.44,29.11,12.27,45.04,2.17,18.95,3.78,36.86,7.3,55.64,5.95,31.77,17.83,60.82,36.61,87.1,17.9,25.06,30.87,51.57,40.51,80.99,22.8,69.66,55.75,257.25,47.74,318.27l-.91,6.92-.02-.05ZM626.37,301.74c.26-3.5-1.49-7.45-1.65-11.24-1.7,16.31,2.21,53.56,7.3,68.94-.57-18.28-6.97-39.47-5.65-57.7h0ZM456.1,315.53l-8.27,43.94c.18,2.52,2.97,2.87,2.79.26-.81-10.05,8.53-35.94,5.48-44.2Z" fill="#84a2d5"/><path d="M525.59,381.94c4.55-3.31,4.07-10.41,8.93-13.38-5.59,14.2-12.25,27.72-16.23,43.11-3.03-7.19,8.76-25.3,7.3-29.73h0Z" fill="#d4a748"/><path d="M487.63,595.66c.86.04,1.65-.08,2.39-.28,1.29-.35,2.01,1.44.86,2.13-20.32,12.2-32.39,34.11-22.52,59.07,9.89,24.98,32.45,39.86,48.33,65.06,24.04,38.12,4.35,73.87-23.81,101.87-11.84,11.77-23.72,22.33-37.22,32.36l-75.26,55.88c-54.76,40.66-84.97,54.36-125.51,110.29-.84,1.17-2.2,1.87-3.63,1.87l-21.76-.5s-3.77-.09-5.22-.14c-.21,0-.68-.1-.74-.07-.8.42,11.2-12.43,11.8-13.01,46.27-44.56,60.01-59.48,109.01-94.9l89.24-64.52c24-17.35,57.24-43.86,70.94-69.83,9.84-18.64,8.45-39.73-2.71-57.48-14.46-22.99-29.04-32.57-40.57-55.9-8.16-16.52,1.66-50.87,1.66-50.87M462.92,616.7s-14.95,8.53-24.09,12.11c-.49.19-.8.7-.74,1.23,2.47,22.8,8.73,43.56,17.08,64.42,15.6,39.01,18.31,72.66-10.76,106.38-11.05,12.83-23.37,23.39-37.44,33.11l-69.44,47.14c-.46-2.27,3.35-3.57,4.77-4.88,15.15-14.06,31.32-27.38,47.37-40.49,24.6-20.11,55.82-43.04,63-75.28,3.77-16.92,1.92-34.89-3.92-51.05-.08-.21-.1-.45-.04-.68.64-2.57,2.81-4.56,2.03-7.25-2.03-6.92-5.12-13.2-7.99-20.51-14.76-37.64-17.49-78.17-10.29-118.02,3.55-19.69,8.5-38.69,19.07-54.67.25-.37.69-.59,1.13-.52,1.29.19,2.56.56,3.75,1.07,2.17-3.61-10.41,24.33-6.94,19.3-3.73,5.39-4.54,12.01-6.84,18.7-1.1,3.2-4.49,24-4.91,26.09-.83,4.12-1.02,33.47-.58,47.63.02.83.89,1.36,1.65,1.02,47.25-21.2,63.73-53.48,78.1-101.79.22-.73-.31-1.46-1.09-1.51-14.18-.75-18.99-28.01-18.85-40.34,0-.89-.94-1.45-1.71-1.02l-7.07,3.86c-.17.09-.37.15-.56.15l-3.45-.02c-.46,0-.82-.32-1-.74-.4-.95-1.46-1.29-2.53-1.43-.62-.08-1.04-.64-.99-1.26.86-9.88-1.4-18.87-5.82-27.15-5.39-10.12-10.28-20.17-18.33-29.23-4.76-5.37-8.42-10.77-10.51-17.06-.01-.03-.03-.08-.04-.11-.33-.69-.59-1.27-.82-1.78-.48-1.13.9-2.14,1.82-1.34,1.67,1.44,3.82,2.72,5.28,4.58l21.34,27.17c.72.91,2.19.32,2.06-.84-2.17-22.08-3.58-42.45-3.03-63.81.02-1.08-1.29-1.62-2.01-.82l-17.62,19.34c.98-4.02,4.23-7.27,7.14-10.71,31.05-36.62,25.7-67.79,24.67-110.38l-.77-31.93c-.9,2.03,4.97-50.54,18.53-70.63,11.75-17.4,30.24-28.57,51.31-28.37,16.52.16,30.11,8.91,40.05,20.66.2.25.34.56.31.88-.15,1.85,1.37,3.43,1.68,5.54.27,1.8-2.34,2.41-3.51,2.39-.22-.08-.48-.09-.73-.1-.41-.02-.78-.28-.96-.66-.3-.63-.54-1.08-1.15-1.72-9.9-10.4-21.68-18.34-36.79-18.59-15.45-.26-27.8,7.36-38.12,17.49-13.61,13.34-18.07,26.64-19.96,45.06-.58,5.63-.99,11.21-1.98,16.69-1.78,9.79-2.02,19.92-2.03,30.5l-.07,57.3c0,.81.78,1.36,1.55,1.1,8.54-2.82,14.23-9.26,15.79-18.03,4.15-23.32,3.69-33.53-5.19-55.67-2.05-5.11-.85-22.9-.08-31.02.11-1.14-.31-5.65.62-6.59.96-.99,1.76-1.61,2.17-3.44,2.76-12.32,9.39-22.24,17.07-31.46.04-.06.11-.11.17-.17,18.67-15.45,29.31-8.06,36.07-15.1.61-.63,1.61-.41,1.94.39,2.91,7.19,15.45,7.38,25.91,21.95.29.42.3.98,0,1.38-1.26,1.63-2.88,3.43-3.1,5.69-.07.73,1.39,1.85,1.82,2.61.27.47-.06,1.05-1.03,1.35-.21-2.09-2.15-2.13-3.86-3.23-6.01-3.89-17.72-12.98-21.08-20.39-.37-.81-1.47-.99-2-.27-10.13,13.73-34.29,5.05-44.7,30.98-2.2,5.47-5.45,10.75-6.84,16.58-1.91,8,.9,15.8,1.63,23.73,1.59,17.24,8.25,33.01,21.07,44.25,8.27,7.25,18.34,8.95,28.11,3.39,24.83-14.11,30.72-35.7,37.3-60.98.11-.42.43-.73.84-.84h0c.81-.2,1.57.47,1.43,1.31-1.29,8.08-3.82,26.91-5.75,30.03l-14.1,22.77c-1.89,3.06-5.59,30.4,6.77,38.23,3.09,1.96,6.04,3.49,9.17,5.15.73.39,1.63-.09,1.7-.92.83-8.77.74-16.36,1.32-24.15-1.47,27.48,4.79,54.64,21.53,77.19,1.36,1.82,3.38,2.8,3.13,4.95l-11.86-12.3c-.71-.73-1.94-.27-2,.75l-4.03,74.54c-.13,2.52-.35,4.51,1.35,5.63.58.38.71,1.33.75,2.19.03.75-.64,1.33-1.38,1.2s-1.47-.44-1.6-1.23c-.49-3.05-.02-5.67-.31-9.04-2.08-1.33-2.78.45-3.23,3.21-.24,1.43-2.35,1.22-2.31-.23.76-29.63,5.72-61.96,3.21-91.69-.73-8.61-5.72-17.25-4.35-26.19.06-.37-.06-.77-.33-1.02-1.82-1.68-4.18-2.52-6.64-3.39-.64-.23-1.31.14-1.5.79-2.16,7.25-6.53,12.25-13.18,15.98-23.76,13.3-62.02,10.33-75.05-14.81-.27-.51-.84-.77-1.39-.59-2.22.72-4.77,1.62-6.1,3.13-.15.17-.24.39-.26.62-5.2,41.32-10.69,20.55-10.07,68.2.27,20.23,3.04,39.58,5.72,59.52,1.27,9.38,1.68,18.04,1.08,27.52-.06.9.87,1.54,1.68,1.13,6-3.07,11.15-6.28,16.52-9.76.24-.16.41-.38.49-.65,4.18-14.08,2.03-44.73,4.8-56,4.44-18.06,12.62-34.79,21.49-50.8,1.03-1.87,3.15-2.57,4.24-3.15,1.89-1.01,3.95,1.25,5.78,1.37,1.57.1,3.3-2.21,4.98-1.55,1.37.54,3.61,1.49,4.69,3.61,8.03,15.77,15.68,31.74,20.46,49,3.54,12.8,1.29,43.44,7.18,57.46.12.28.35.51.63.62l17.43,7.26c.64.27.9-1.07.83-1.34.25.1.54.09.85.11,1.05.07,1.48,1.41.66,2.07-.57.46-1.02.91-1.28,1.43-.24.46-.74.73-1.24.63-1.42-.3-3.54-.25-4.26.51-.3.33-.77.41-1.2.26-.75-.26-1.67-.44-2.57-.74-.8-.26-1.58.41-1.5,1.24,1.14,11.76-4.46,40.96-17.22,42.14-.76.07-1.29.78-1.05,1.51,9.25,29.66,25.76,63.94,51.79,82,.57.39,1.61.51,2.06.59.36.06.56-.33.64-.88,1.69,2.72,1.89,6.48.75,9.52-.25.66-1.05.95-1.67.59-32.22-18.64-52.49-60.47-61.3-95.95-1.05-4.25.71-8.59-.5-12.66-.06-.2-.18-.38-.34-.53-7.17-6.64-12.8-13.61-17.15-22.09-.44-.86-1.67-.82-2.07.05-4.12,8.89-9.65,15.47-15.31,22.68-.16.2-.25.45-.25.71l-.15,11.94c-.16,12.52-22.33,67.89-36.72,79.95M535.85,161.61c-2.97-.52-5.93-.03-8.34,1.97-.95.79-.09,2.33,1.1,1.99,2.32-.68,4.67-1.22,7.2-1.67,1.27-.23,1.31-2.07.04-2.3h0ZM579.72,312.75c-11.59-8.06-10.42-23.66-10.19-36.28.02-1-1.13-1.55-1.89-.91-11.31,9.42-24.93,15.45-38.19,5.75-4.92-3.6-8.76-7.81-13-12.69-.68-.79-1.98-.35-2.04.7-.83,15.04-.08,33.37-13.65,42.28-.53.34-.72,1.04-.4,1.58,14.78,25.34,64.95,26.49,79.76,1.14.31-.53.12-1.2-.38-1.55h-.01ZM524.89,381.39c-.02.27-.1.53-.28.73-2.89,3.27-10.4,24.55-10.83,28.1-1.71,14.2-1.24,29.34-1.26,43.34-.02,24.88-24.37,14.04-2.5,56.28.39.77,1.45.84,1.96.17l14.14-18.82c4.21-5.61,7.81-11.42,9.94-17.71.09-.27.28-.48.53-.63,2.31-1.33,4.02-3.71,6.67-3.48.48.05.89.41,1.01.89,1.89,7.4,7.43,14.35,12.16,20.32l15.27,19.31c.54.68,1.59.55,1.96-.23,20.34-43.06-3.64-33.19-4.95-53.24l-2.97-45.32c-1.2-18.33-12.37-34.85-19.63-51.32-.26-.59-.94-.84-1.52-.6-2.02.87-1.52,2.66-1.73,3.98-.27,1.76,1.94,1.9,2.84,3.38,8.28,13.64,14.26,28.37,17.32,44.66-6.71-13.59-9.01-28.06-17.68-41.73-.47-.73-1.56-.7-2,.06-2.65,4.49.06,8.03,2.32,11.65,4.49,7.18,7.27,15.55,8.72,24.08.25,1.46-1.89,1.92-2.28.51-2.04-7.45-3.41-14.87-7.15-21.72-.27-.5-.86-.73-1.39-.55s-1.06.46-1.47.66c-.25.12-.53.16-.8.09l-4-.99c-6.27-1.55-10.51,28.96-13.39,33.7.56-12.4,3.71-24.72,9.75-35.21,2.35-4.08,5.9-7.61,3.17-12.75-.31-.6-1.08-.78-1.66-.43-.49.3-.92.38-1.32-.1,1.01-5.36,3.38-1.33,3.41-7.56.03-9.89-12.08,16.16-12.37,20.5h0Z" fill="#d4a748"/><path d="M603.89,442.79c.16,1.13,1.14,2.58,2.5,3.09-1.95,7.08-2.16,14.8-1.76,22.47.24,4.38-.04,5.74,3.22,7.55,19.37,10.78,25.26,58.62,26.05,79.27l2.03,52.92c.78,20.56,9.34,37.42,24.96,49.59,6.75,5.25,13.82,9.95,21.95,14.09,6.2,3.16,24.19,14.83,27.6,17.45,19,14.63,32.89,33.87,42.57,55.81,1.04,2.36,1.55,2.96,1.54,4.6-.01,5.85-.98,7.71-3.26,13.97-6.71-20.07-14.44-31.53-26.71-47.67-2.39-3.13-4.6-6.63-7.69-9.69-32.15-31.89-55.28-34.71-73.27-53.64-10.09-10.61-15.24-24.76-15.74-39.43l-1.73-51.26c-.47-14.06-2.38-27.48-4.65-41.25-1.8-10.88-5-21-9.71-30.78-3.26-6.78-8.37-11.21-14.48-14.63.03-1.32,1.09-2.09,2.56-3.18-.72-1.7-1.86-1.11-2.56-1.38-.91-.36-.62-1.7-.93-2.34,1.86-.02,1.38-2.01,1.14-3.23-.26-1.29-.57-2.86-2.02-3.05-1.27-5.27-1.4-10.79-.58-16.15,3.09-4.66,1.11-16.36,5.62-13.48.28,3.36-.19,5.99.31,9.04.22,1.37,2.28,1.31,3.05,1.31h0Z" fill="#d7aa47"/><path d="M597.29,475.27c6.11,3.42,11.21,7.83,14.48,14.63,4.71,9.78,7.9,19.9,9.71,30.78,2.29,13.76,4.18,27.18,4.65,41.25l1.73,51.26c.49,14.66,5.65,28.8,15.74,39.43,18,18.93,41.13,21.75,73.27,53.64,3.09,3.06,5.3,6.56,7.69,9.69-21.52-22.51-39.55-32.6-66.94-47.25-7.6-4.06-14.96-8.45-20.51-15.16-9.68-11.69-13.72-26.61-13.92-41.25,1.71-3.2,1.73-7.64-.2-10.75.47-7.01-8.99-109.32-21.36-118.27l-9.83-7.11c-.21-1.78,4.2-1.63,5.5-.9h0Z" fill="#d4a748"/><path d="M634.4,386.3c-.08,3.29-.4,9.09-1.36,5.97-1.51-4.96-4.3-16.84-7.42-20.98-8.68-11.53-16.04-23.91-20.6-37.58-2.28-6.83-4.12-50.11-2.43-61.03,0,0,1.02-40.99,1.71-45.57,1.48-9.73-3.32-42.11-3.7-43.22-2.72-7.93-6.75-13.55-10.02-20.24,1.17.02,5.22-.34,4.95-2.14-.34-2.26-2.06-3.94-1.61-5.96,8.32,9.99,13.28,21.76,16.24,35.12,14.22,64.33-22.67,113.82,12.4,167.8,4.77,7.35,12.05,19.27,11.84,27.84Z" fill="#dba73b"/><path d="M483.98,480.95c-11.77,5.86-20.12,16.74-26.89,27.96-1.43-.6-2.94-1-4.48-1.16,3.62-5.37,5.69-12.16,11.96-16.93-15.6,8.3-26.84,40.33-31.24,57.55-13.19,51.69-9.76,107.5,18.08,153.19.83,2.81-1.58,4.86-2.11,7.59-5.67-15.53-13.17-30.02-18.1-46.58-9.39-31.56-10.41-78-.5-117.4,3.24-12.89,7.71-24.69,14.3-36.13,15.69-27.23,25.5-21.34,30.06-26.86,1-1.22,4.71-1.14,5.11-3.47,1.61.05,3.68.3,3.8,2.24h.01Z" fill="#d7aa47"/><path d="M443.45,392.68c.84-5.2,1.18-12.3,4.38-17.32l13.51-21.22c12.98-20.38,18.63-43.69,17.05-68.08-.11-1.77.07-3.94,1.18-4.58-.07,9.87,1.43,21.14.69,31.47-1.65,22.94-10.17,43.23-23.94,61.33-4.23,5.56-9.94,17.96-12.31,24.56-.21,1.38-.44-4.94-.56-6.17h0Z" fill="#d4a746"/><path d="M633.35,397.66c-.94,2.75-1.14,5.76-3.1,8.75l-13.74,18.06c-4.1,5.95-9.26,18.35-10.1,21.42-1.37-.53-2.34-1.97-2.5-3.09-.12-.9.1-2.87-.83-3.48-.08-3.3,1.38-6.78,3.61-9.83l18.46-25.24c2.56-3.49,7.17-7.56,8.1-11.41,1.35,1.07-.21,3.06.1,4.83h0Z" fill="#dba73b"/><path d="M542.37,384.43c-.67,13.18,6.95,23.05,4.46,37.99-1.28,1.02-2.91.96-4.27.1.04-5.38-.08-10.85-1.8-17.12-2.82,7.92-1.23,15.76-1.12,23.79-4.4,2.52,1.67,8.38-1.93,12.39-4.39-24.89-5.49-23.03.08-47.45.89-3.87,1.52-7.45.2-10.77l4.39,1.09h-.01Z" fill="#d3a645"/><path d="M488.57,480.98c-17.88,9.74-31.06,27.67-38.84,47.74l.41-.52c-3.47,5.03,9.11-22.9,6.94-19.3,6.77-11.22,15.12-22.09,26.89-27.96l4.58.03h.01Z" fill="#d4a748"/><path d="M588.28,174.79c2.35,7.17,4.08,14.58,5.93,22.42.46,1.97.96,3.41,2.93,3.36,1.85,5.22-.15,10.23-1,15.08l-2.39.61c-2.76-16.31-.43-18.87-9.81-33.38.96-.3,1.29-.88,1.03-1.35-.43-.75-1.87-1.88-1.82-2.61.26-2.58,2.34-4.56,3.61-6.38.53.77,1.22,1.32,1.52,2.24h-.01Z" fill="#d3a645"/><path d="M494.31,205.38c1.89-18.42,6.36-31.72,19.96-45.06-10.01,13.73-15.85,28.88-19.96,45.06Z" fill="#d4a748"/><path d="M502.93,199.66c.95-7.5,3.82-14.99,7.39-21.93,3.06-5.95,7.42-9.32,11.93-13.06-7.71,9.25-14.38,19.18-17.15,31.55-.41,1.83-1.21,2.45-2.17,3.44h.01Z" fill="#d4a748"/><path d="M544.56,439.32c-1.18,9.97-2,20.35.22,30.32-3.3-.95-5.14,2.13-7.88,3.52.62-1.88.73-4.85.86-6.84h2.29c.4,0,1.94.25,2.05-.28l.22-25.63c.01-1.34,1.64-1.31,2.25-1.09h-.02Z" fill="#d3a645"/><path d="M589.19,161.42c.77.81.94,1.31,1.4,2.24" fill="#dba73b"/><path d="M596.37,468.36c-.94-1.97-.38-4.24-.87-6.29,1.45.19,1.76,1.76,2.02,3.05.24,1.22.71,3.21-1.14,3.23h0Z" fill="#d4a748"/><path d="M597.12,200.58c-1.96.05-2.47-1.4-2.93-3.36-1.84-7.84-3.58-15.26-5.93-22.42,5.53,4.51,8.52,24.85,8.85,25.79h0Z" fill="#d3a645"/><path d="M547.22,244.79c-1.86-.07-3.93-1.55-6.44-2.52-.82-.32-.19-1.71.68-1.63,1.41.12,2.61,1.42,4.02,2.41,1.82,1.28,7.79-.14,7.73-3.06-.21-10.54.36-20.47,5.01-30.24.37-.79,1.19-.41.85.46-3.78,9.9-4.64,19.41-4.69,30.06,0,1.35-.24,2.3-1.41,2.98-2.2,1.29-4.05,1.58-5.75,1.52v.02Z" fill="#d4a748" stroke="#d4a748" stroke-miterlimit="10" stroke-width=".75"/><path d="M589.88,206.65c-6.29-3.98-18.74-6.24-26.09-3.31-1.06.43-1.87-1.17-1.09-2.01,2.99-3.22,15.75-1.92,22.45.99,1.19.52,5.83,5.03,4.74,4.33h-.01Z" fill="#d7aa47" stroke="#d4a748" stroke-miterlimit="10" stroke-width=".75"/><path d="M531.86,253.04c7.64-.25,8.48-.53,16.45.87,3.09.54,8.45,2.73,9.35,2.97-8.37.75-16.31-.75-25.8-3.84Z" fill="#d4a748" stroke="#d4a748" stroke-miterlimit="10" stroke-width=".75"/><path d="M517.93,209.37c15,4.32,4.86,2.43,20.3,3.3-1.59,4.31-6.18,3.26-11.1,2.63-3.22-.42-7.59-2.03-9.2-5.93h0Z" fill="#d7aa47" stroke="#d4a748" stroke-miterlimit="10" stroke-width=".75"/><path d="M540.78,199.66c-3.09-.95-9.8-8.06-25.87-2.93,7.51-5.94,18.17-5.5,25.66.2.77.59,1.4,1.04,1.69,1.34.46.47-.57,1.67-1.48,1.38Z" fill="#d4a748" stroke="#d4a748" stroke-miterlimit="10" stroke-width=".75"/><path d="M582.69,217.3c-1.08,5.11-5.28,3.72-9.83,3.52-3.07-.14-7.95-.26-9.95-4.75,7.12,2.18,11.94,3.52,19.78,1.23Z" fill="#d7aa47" stroke="#d4a748" stroke-miterlimit="10" stroke-width=".75"/><path d="M548.4,263.83c-2.04,1.09-5.78.55-8.45-1.29-.63-.43.02-1.71.72-1.42,2.38.99,4.76,1.51,7.35,1.22.71-.08,1,1.16.38,1.5h0Z" fill="#d7aa47" stroke="#d4a748" stroke-miterlimit="10" stroke-width=".75"/><path d="M546.83,422.42c-.11.65-2.11,15.39-2.29,16.9-.62-.21-2.24-.25-2.25,1.09l-.22,25.63c-.11.53-1.64.28-2.05.28l.09-18.07c0-1.26-1.05-1.7-1.43-2.12-.82-.89-1.89-3.56-.98-4.57,3.6-4.01-2.48-9.86,1.93-12.39,1.83-1.05,2.9-4.47,2.91-6.66,1.36.86,2.99.92,4.27-.1h.02Z" fill="#d4a748"/><path d="M540.03,466.32h-2.29c.56-8.92,1.73-12.15.94-20.19.38.42,1.43.86,1.43,2.12l-.09,18.07h0Z" fill="#dba73b"/><polygon points="743.47 202.64 731.82 194.41 720.41 202.98 724.61 189.31 712.95 181.06 727.21 180.85 731.41 167.18 736.02 180.72 750.28 180.51 738.87 189.09 743.47 202.64" fill="#d3a645"/><polygon points="562.2 35.47 550.54 27.23 539.13 35.81 543.34 22.13 531.68 13.9 545.94 13.68 550.14 0 554.75 13.55 569 13.33 557.59 21.92 562.2 35.47" fill="#d3a645"/><polygon points="378.29 202.11 366.64 193.87 355.22 202.45 359.43 188.77 347.77 180.53 362.03 180.32 366.24 166.64 370.85 180.18 385.11 179.98 373.7 188.57 378.29 202.11" fill="#d3a645"/></svg>